HIERARCHY
ROOT Hips
{
	OFFSET 0.000000 8.830580 0.000000
	CHANNELS 6 Xposition Yposition Zposition Zrotation Yrotation Xrotation 
	JOINT Spine
	{
		OFFSET 0.000000 0.010000 0.000000
		CHANNELS 3 Zrotation Yrotation Xrotation
		JOINT Spine1
		{
			OFFSET 0.000000 2.459130 0.000000
			CHANNELS 3 Zrotation Yrotation Xrotation
			JOINT Neck
			{
				OFFSET 0.000000 2.484630 0.000000
				CHANNELS 3 Zrotation Yrotation Xrotation
				JOINT Head_virtual
				{
					OFFSET 0.000000 0.000000 0.000000
					CHANNELS 3 Zrotation Yrotation Xrotation
					JOINT Head
					{
						OFFSET 0.000000 0.927525 0.000000
						CHANNELS 3 Zrotation Yrotation Xrotation
						End Site
						{
							OFFSET 0.000000 0.000000 0.000000
						}
					}
				}
				JOINT LeftUpArm_virtual
				{
					OFFSET 0.000000 0.000000 0.000000
					CHANNELS 3 Zrotation Yrotation Xrotation
					JOINT LeftUpArm
					{
						OFFSET 1.248820 0.000000 0.000000
						CHANNELS 3 Zrotation Yrotation Xrotation
						JOINT LeftForeArm
						{
							OFFSET 2.597580 0.000000 0.000000
							CHANNELS 3 Zrotation Yrotation Xrotation
							JOINT LeftHand
							{
								OFFSET 2.455420 0.000000 0.000000
								CHANNELS 3 Zrotation Yrotation Xrotation
								End Site
								{
									OFFSET 0.000000 0.000000 0.000000
								}
							}
						}
					}
				}
				JOINT RightUpArm_virtual
				{
					OFFSET -0.000000 -0.000000 -0.000000
					CHANNELS 3 Zrotation Yrotation Xrotation
					JOINT RightUpArm
					{
						OFFSET -1.248820 -0.000000 -0.000000
						CHANNELS 3 Zrotation Yrotation Xrotation
						JOINT RightForeArm
						{
							OFFSET -2.597580 -0.000000 -0.000000
							CHANNELS 3 Zrotation Yrotation Xrotation
							JOINT RightHand
							{
								OFFSET -2.455420 -0.000000 -0.000000
								CHANNELS 3 Zrotation Yrotation Xrotation
								End Site
								{
									OFFSET 0.000000 0.000000 0.000000
								}
							}
						}
					}
				}
			}
		}
	}
	JOINT LeftUpLeg
	{
		OFFSET 1.271939 0.000000 0.000000
		CHANNELS 3 Zrotation Yrotation Xrotation
		JOINT LeftLowLeg
		{
			OFFSET 0.000000 -4.342910 0.000000
			CHANNELS 3 Zrotation Yrotation Xrotation
			JOINT LeftFoot
			{
				OFFSET 0.000000 -4.487670 0.000000
				CHANNELS 3 Zrotation Yrotation Xrotation
				JOINT LeftToeBase
				{
					OFFSET 0.000000 0.000000 1.515070
					CHANNELS 3 Zrotation Yrotation Xrotation
					End Site
					{
						OFFSET 0.000000 0.000000 0.000000
					}
				}
			}
		}
	}
	JOINT RightUpLeg
	{
		OFFSET -1.271939 0.000000 0.000000
		CHANNELS 3 Zrotation Yrotation Xrotation
		JOINT RightLowLeg
		{
			OFFSET 0.000000 -4.342910 0.000000
			CHANNELS 3 Zrotation Yrotation Xrotation
			JOINT RightFoot
			{
				OFFSET 0.000000 -4.487670 0.000000
				CHANNELS 3 Zrotation Yrotation Xrotation
				JOINT RightToeBase
				{
					OFFSET 0.000000 0.000000 1.515070
					CHANNELS 3 Zrotation Yrotation Xrotation
					End Site
					{
						OFFSET 0.000000 0.000000 0.000000
					}
				}
			}
		}
	}
}
MOTION
Frames: 16
Frame Time: 0.041667
-12.581601 9.234881 37.876623 -168.881458 -50.590599 173.633191 -3.053499 0.125302 -2.421796 9.799306 -2.745124 4.822157 0.000000 0.000000 0.000000 0.557562 -16.137704 8.231194 19.443108 1.464919 -91.321787 -33.296200 3.351030 10.193900 -19.344801 -11.624900 53.517799 -180.000000 -77.424004 180.000000 28.665001 -8.428690 -15.276600 26.584299 0.422630 17.753700 28.334000 8.608750 37.191799 -180.000000 79.692001 -180.000000 6.660490 -3.885750 -32.925400 4.645848 5.797452 -4.637039 0.000000 0.000000 12.041800 -12.182940 2.431363 1.486139 0.000000 0.000000 -40.234301 -1.699789 15.643484 -16.344322 0.000000 0.000000 22.073000 15.355119 4.217456 13.311015 0.000000 0.000000 -41.227900 
-12.564237 9.238999 37.932702 -168.715229 -49.774212 173.674551 -2.897353 0.212398 -2.375966 9.451839 -2.701400 5.113838 0.000000 0.000000 0.000000 0.541737 -15.833503 8.029181 19.413699 1.696498 -91.438441 -33.090698 3.238350 10.478800 -18.735300 -11.988300 53.235901 180.000000 -77.458000 -180.000000 27.747101 -9.248240 -16.869900 26.680700 0.465047 17.919600 28.311300 8.846000 37.180500 180.000000 79.864998 180.000000 6.179550 -3.587690 -32.820702 4.600281 6.413957 -4.789186 0.000000 0.000000 11.707400 -11.331216 2.917993 1.761184 0.000000 0.000000 -40.511700 -1.445845 15.713037 -15.965128 0.000000 0.000000 20.842100 16.052361 3.194667 12.988697 0.000000 0.000000 -42.275900 
-12.544750 9.241173 37.984170 -168.666055 -48.969745 173.775510 -2.757551 0.417743 -2.303131 8.984913 -2.518110 5.229033 0.000000 0.000000 0.000000 0.618126 -15.692290 8.139418 19.243252 1.932500 -91.526353 -32.867199 3.062080 10.733000 -18.150499 -12.378900 53.173500 180.000000 -77.250999 -180.000000 27.094999 -9.119770 -17.619200 26.896099 0.359005 18.069000 28.181101 9.066320 37.158001 -180.000000 80.103798 -180.000000 5.925210 -2.764740 -33.219398 4.512389 6.773941 -4.890411 0.000000 0.000000 11.349600 -11.162252 3.397542 1.906852 0.000000 0.000000 -40.427999 -1.151149 15.623428 -15.636155 0.000000 0.000000 20.265301 16.934673 2.232879 12.115168 0.000000 0.000000 -43.079500 
-12.522757 9.241971 38.029662 -168.674667 -48.287060 173.859158 -2.695424 0.558358 -2.263968 8.553520 -2.390960 5.298896 0.000000 0.000000 0.000000 0.643857 -15.618825 8.441934 18.973197 2.038462 -91.450712 -32.634899 2.936410 10.862500 -17.697300 -12.776400 53.256599 180.000000 -76.990997 -180.000000 26.709299 -8.539980 -17.833599 27.037201 0.423530 18.411600 28.144501 9.253830 37.069302 -180.000000 80.224098 -180.000000 5.450760 -2.381540 -33.684700 4.419554 7.321035 -5.048885 0.000000 0.000000 11.195400 -10.967114 3.611117 2.043859 0.000000 0.000000 -40.331400 -0.708629 15.096844 -15.268621 0.000000 0.000000 20.352200 15.933267 1.325064 10.529418 0.000000 0.000000 -42.688601 
-12.499538 9.242636 38.070498 -168.761328 -47.660955 174.009234 -2.742313 0.717046 -2.307551 8.249397 -2.239744 5.397696 0.000000 0.000000 0.000000 0.622387 -15.514571 8.816655 18.718929 2.124733 -91.352109 -32.517101 2.938230 10.821000 -17.326401 -13.355900 53.553200 180.000000 -76.787003 -180.000000 26.553600 -7.834450 -18.052799 27.126600 0.440829 18.283800 28.130199 9.183190 37.389000 180.000000 80.127701 180.000000 4.162510 -2.704890 -32.802200 4.299780 7.817437 -5.253226 0.000000 0.000000 11.100900 -10.816284 3.798037 2.227394 0.000000 0.000000 -40.396099 -0.208906 14.241444 -14.970326 0.000000 0.000000 21.026501 14.430612 0.678987 9.022569 0.000000 0.000000 -42.546801 
-12.474611 9.242464 38.108888 -168.841764 -47.119371 174.153388 -2.636671 0.897663 -2.429288 7.695301 -2.079310 5.508989 0.000000 0.000000 0.000000 0.495595 -15.361209 9.209112 18.782986 2.126033 -91.240234 -32.303398 2.826050 10.586400 -17.126400 -13.807300 53.993999 180.000000 -76.716003 -180.000000 26.440001 -7.509970 -18.098700 27.312599 0.429877 18.318300 28.093700 9.169060 37.315201 180.000000 80.012604 180.000000 3.295910 -2.876220 -32.332401 4.194930 8.123578 -5.540143 0.000000 0.000000 11.141400 -10.680795 4.058998 2.352404 0.000000 0.000000 -40.409800 0.318455 13.174273 -14.700359 0.000000 0.000000 22.139999 13.298439 0.293079 7.740902 0.000000 0.000000 -42.798100 
-12.449504 9.241004 38.145524 -169.047504 -46.643894 174.346621 -2.587072 1.056681 -2.552434 7.153326 -1.937823 5.630340 0.000000 0.000000 0.000000 0.434825 -15.288957 9.537485 18.734411 2.137938 -91.156787 -32.144501 2.801140 10.319000 -17.014700 -14.301800 54.578201 -180.000000 -76.695000 180.000000 28.919100 -6.915600 -12.804600 27.434099 0.368698 18.152201 28.046000 9.172000 37.337502 -180.000000 79.977997 -180.000000 3.752860 -2.782220 -33.766399 4.007940 8.160631 -5.804677 0.000000 0.000000 11.212200 -10.580319 4.533060 2.444050 0.000000 0.000000 -40.434500 0.785666 11.915266 -14.366678 0.000000 0.000000 23.596600 13.014752 0.140980 6.575960 0.000000 0.000000 -43.329201 
-12.430927 9.243913 38.184785 -169.714459 -46.340154 174.967800 -2.592493 1.155948 -2.986488 6.316419 -1.876300 6.006342 0.000000 0.000000 0.000000 0.356435 -15.302685 9.989296 18.719082 2.242004 -91.427155 -32.221001 2.653570 10.039000 -16.755899 -14.539400 54.742401 180.000000 -76.781998 -180.000000 28.621700 -6.960820 -13.174200 27.738600 0.417505 17.989401 27.818501 9.099060 37.285599 180.000000 80.113602 180.000000 2.906360 -2.394680 -33.327099 3.644627 2.675091 -5.126682 0.000000 0.000000 9.354850 -11.061154 9.427044 2.555535 0.000000 0.000000 -40.088200 0.793120 10.682626 -14.051393 0.000000 0.000000 25.164200 13.151264 0.161753 5.776843 0.000000 0.000000 -43.844000 
-12.404094 9.240635 38.217015 -169.849739 -46.104939 175.166556 -2.367724 1.253395 -3.214750 5.577892 -1.806660 6.022355 0.000000 0.000000 0.000000 0.484661 -15.426454 10.238253 18.376192 2.327631 -91.417928 -32.081699 2.593210 10.029300 -16.731600 -14.782700 54.681099 -180.000000 -76.783997 180.000000 27.988100 -6.787680 -13.478000 27.882500 0.271862 17.972300 27.829901 9.119750 37.143600 180.000000 80.175003 180.000000 2.367620 -2.275010 -32.706600 3.586319 1.433909 -5.332695 0.000000 0.000000 9.142330 -11.285382 10.613298 2.502640 0.000000 0.000000 -40.077000 1.178862 9.324812 -13.749184 0.000000 0.000000 27.038900 13.667125 0.377011 5.247454 0.000000 0.000000 -44.084499 
-12.375111 9.236873 38.246061 -170.037890 -45.952190 175.377686 -2.133378 1.345244 -3.425165 4.785170 -1.743344 6.008961 0.000000 0.000000 0.000000 0.675641 -15.546311 10.328663 17.969950 2.453988 -91.402943 -31.992300 2.543940 10.015800 -16.722300 -14.903200 54.518902 -180.000000 -76.767998 180.000000 27.143101 -6.601220 -13.759900 28.040100 0.195691 17.764799 27.966101 8.872620 37.033199 180.000000 80.237701 180.000000 3.146500 -1.827910 -34.205799 3.481229 1.021616 -5.637559 0.000000 0.000000 9.127960 -11.279090 11.103818 2.602859 0.000000 0.000000 -40.179100 1.486190 8.127175 -13.370841 0.000000 0.000000 28.999001 14.279336 0.678892 4.609624 0.000000 0.000000 -44.256599 
-12.343038 9.232631 38.273464 -170.277655 -45.846286 175.601801 -1.991754 1.372976 -3.586801 4.173373 -1.732717 5.935193 0.000000 0.000000 0.000000 0.529106 -15.259458 10.272674 17.732739 2.524406 -91.373372 -31.967100 2.584110 10.101800 -16.783001 -14.897700 54.131100 180.000000 -76.748001 -180.000000 26.132700 -6.560630 -13.655800 28.167000 0.251259 17.689501 28.004499 8.611370 36.924500 -180.000000 80.334999 -180.000000 4.191680 -0.764540 -37.066399 3.337056 1.171191 -6.018172 0.000000 0.000000 9.272820 -11.233652 11.062701 2.767566 0.000000 0.000000 -40.214600 1.703737 7.037390 -12.946609 0.000000 0.000000 30.996599 14.125741 0.961885 4.058273 0.000000 0.000000 -44.309999 
-12.308545 9.228144 38.299467 -170.524776 -45.722623 175.819071 -1.927294 1.441502 -3.741396 3.819784 -1.669740 5.834456 0.000000 0.000000 0.000000 0.123874 -14.764600 10.140119 17.603501 2.496146 -91.353742 -32.024601 2.594570 10.197000 -16.956100 -14.814400 53.821701 -180.000000 -76.735001 180.000000 25.612101 -6.412830 -13.339200 28.243299 0.250040 17.667000 27.820999 8.461060 36.990101 180.000000 80.340797 180.000000 3.184280 -0.733767 -36.676899 3.199826 1.400383 -6.421096 0.000000 0.000000 9.474220 -11.174902 10.966476 2.942276 0.000000 0.000000 -40.259001 1.837537 6.287238 -12.455708 0.000000 0.000000 32.833302 14.038386 1.324113 3.754604 0.000000 0.000000 -44.330999 
-12.270723 9.223532 38.324525 -170.759461 -45.635832 176.056465 -1.845819 1.479964 -3.867092 3.502657 -1.634114 5.615591 0.000000 0.000000 0.000000 -0.343717 -14.059693 10.083709 17.297156 2.597281 -91.360675 -32.002602 2.677750 10.391000 -17.307600 -14.658800 53.420601 -180.000000 -76.799004 180.000000 24.961100 -6.222220 -13.310700 28.296200 0.295679 17.838800 27.742500 8.346830 36.890598 180.000000 80.439598 180.000000 3.683260 0.152410 -39.252399 3.091472 1.353332 -6.871736 0.000000 0.000000 9.666880 -11.140310 11.116994 3.092280 0.000000 0.000000 -40.379700 1.922633 5.610172 -11.923546 0.000000 0.000000 34.453999 14.456784 1.894603 3.663505 0.000000 0.000000 -45.078501 
-12.229063 9.218997 38.350072 -170.986226 -45.536068 176.299880 -1.791348 1.532153 -3.982606 3.345934 -1.580797 5.403823 0.000000 0.000000 0.000000 -0.833707 -13.340513 9.856239 16.925107 2.642153 -91.296265 -32.020401 2.816520 10.474500 -17.747700 -14.480500 53.175701 180.000000 -76.880997 -180.000000 25.047300 -5.874640 -12.543100 28.266001 0.340749 17.841900 27.702801 8.191710 37.057301 -180.000000 80.413399 -180.000000 2.969020 -0.089142 -39.425301 2.976373 1.621370 -7.434984 0.000000 0.000000 10.021300 -11.040814 11.057665 3.265081 0.000000 0.000000 -40.393999 1.997387 4.859018 -11.331360 0.000000 0.000000 35.827301 15.072102 2.477078 3.533305 0.000000 0.000000 -45.233999 
-12.184083 9.214879 38.375308 -171.207538 -45.391704 176.572148 -1.719604 1.613208 -4.117064 3.235482 -1.498386 5.151426 0.000000 0.000000 0.000000 -1.444020 -12.563420 9.731275 16.847109 2.626001 -91.260111 -32.061901 2.988310 10.511100 -18.174601 -14.193400 52.907101 -180.000000 -76.915001 180.000000 24.774300 -5.547690 -11.935200 28.241600 0.414028 17.820801 27.656500 8.031430 37.372002 180.000000 80.417099 180.000000 1.949020 -0.175193 -39.526299 2.910686 1.714786 -7.908024 0.000000 0.000000 10.132700 -10.977309 11.119090 3.487138 0.000000 0.000000 -40.462999 2.044564 4.036832 -10.735449 0.000000 0.000000 36.925800 15.993629 3.238390 3.740982 0.000000 0.000000 -45.837200 
-12.134065 9.211452 38.398442 -171.377722 -45.265646 176.796904 -1.653705 1.727407 -4.255487 3.203385 -1.382996 4.944514 0.000000 0.000000 0.000000 -1.882875 -12.034759 9.622198 16.816603 2.597570 -91.252536 -32.075401 3.087810 10.585000 -18.607700 -13.810900 52.571098 180.000000 -76.903000 -180.000000 24.561300 -5.152080 -11.686900 28.200500 0.499879 17.951700 27.614901 7.941340 37.499199 180.000000 80.459900 180.000000 1.048250 -0.145335 -39.959202 2.887209 1.913137 -8.372380 0.000000 0.000000 10.211500 -11.369394 10.993393 3.600151 0.000000 0.000000 -40.142500 2.137002 3.373150 -10.040474 0.000000 0.000000 37.643101 17.442585 4.314707 4.262603 0.000000 0.000000 -46.189699 
